<svg xmlns="http://www.w3.org/2000/svg" width="1200" height="630" viewBox="0 0 1200 630">
<rect width="1200" height="630" fill="#f3f5f7"/>
  <g transform="translate(322.69,388.70)">
    <path d="M78.32 0L8.36 0L8.36-12.10L37.62-13.86L47.52-13.86L78.32-12.10L78.32 0ZM55.66 0L28.82 0Q29.04-11.22 29.15-22.44Q29.26-33.66 29.26-45.10Q29.26-56.54 29.26-67.98L29.26-67.98L29.26-78.98Q29.26-90.20 29.26-101.53Q29.26-112.86 29.15-124.19Q29.04-135.52 28.82-146.74L28.82-146.74L55.66-146.74Q55.66-135.52 55.55-124.30Q55.44-113.08 55.44-101.75Q55.44-90.42 55.44-78.98L55.44-78.98L55.44-69.08Q55.44-57.20 55.44-45.65Q55.44-34.10 55.55-22.77Q55.66-11.44 55.66 0L55.66 0ZM95.26-68.20L42.24-68.20L42.24-80.74L95.26-80.74L95.26-68.20ZM102.74-47.96L90.42-47.96L86.24-71.06L86.24-77.44L90.42-100.10L102.74-100.10L102.74-47.96ZM37.62-132.88L8.36-134.64L8.36-146.74L40.70-146.74L40.70-132.88L37.62-132.88ZM126.94-107.58L112.64-107.58L105.16-141.68L114.40-133.76L42.24-133.76L42.24-146.74L125.18-146.74L126.94-107.58ZM198 2.86L198 2.86Q181.28 2.86 169.18-3.85Q157.08-10.56 150.59-23.10Q144.10-35.64 144.10-52.80L144.10-52.80Q144.10-70.18 150.81-83.38Q157.52-96.58 169.51-103.95Q181.50-111.32 196.90-111.32L196.90-111.32Q210.76-111.32 220.88-105.93Q231-100.54 236.61-90.75Q242.22-80.96 242.22-67.32L242.22-67.32Q242.22-63.14 241.78-59.29Q241.34-55.44 240.68-52.58L240.68-52.58L158.40-52.58L158.40-63.36L212.52-63.36Q216.92-65.12 218.35-67.98Q219.78-70.84 219.78-75.02L219.78-75.02Q219.78-83.16 217.03-88.66Q214.28-94.16 209.11-96.91Q203.94-99.66 196.90-99.66L196.90-99.66Q188.98-99.66 182.60-95.15Q176.22-90.64 172.37-80.96Q168.52-71.28 168.52-55.66L168.52-55.66Q168.52-42.02 173.03-32.67Q177.54-23.32 185.57-18.37Q193.60-13.42 204.38-13.42L204.38-13.42Q215.38-13.42 222.86-17.49Q230.34-21.56 236.28-28.38L236.28-28.38L243.54-22.22Q238.92-14.96 232.87-9.24Q226.82-3.52 218.35-0.33Q209.88 2.86 198 2.86ZM315.92 2.86L315.92 2.86Q299.20 2.86 287.10-3.85Q275-10.56 268.51-23.10Q262.02-35.64 262.02-52.80L262.02-52.80Q262.02-70.18 268.73-83.38Q275.44-96.58 287.43-103.95Q299.42-111.32 314.82-111.32L314.82-111.32Q328.68-111.32 338.80-105.93Q348.92-100.54 354.53-90.75Q360.14-80.96 360.14-67.32L360.14-67.32Q360.14-63.14 359.70-59.29Q359.26-55.44 358.60-52.58L358.60-52.58L276.32-52.58L276.32-63.36L330.44-63.36Q334.84-65.12 336.27-67.98Q337.70-70.84 337.70-75.02L337.70-75.02Q337.70-83.16 334.95-88.66Q332.20-94.16 327.03-96.91Q321.86-99.66 314.82-99.66L314.82-99.66Q306.90-99.66 300.52-95.15Q294.14-90.64 290.29-80.96Q286.44-71.28 286.44-55.66L286.44-55.66Q286.44-42.02 290.95-32.67Q295.46-23.32 303.49-18.37Q311.52-13.42 322.30-13.42L322.30-13.42Q333.30-13.42 340.78-17.49Q348.26-21.56 354.20-28.38L354.20-28.38L361.46-22.22Q356.84-14.96 350.79-9.24Q344.74-3.52 336.27-0.33Q327.80 2.86 315.92 2.86ZM425.04 2.86L425.04 2.86Q412.06 2.86 401.83-3.85Q391.60-10.56 385.77-23.21Q379.94-35.86 379.94-53.46L379.94-53.46Q379.94-71.50 386.10-84.48Q392.26-97.46 402.82-104.39Q413.38-111.32 426.36-111.32L426.36-111.32Q434.28-111.32 440-108.90Q445.72-106.48 450.12-101.97Q454.52-97.46 458.48-91.30L458.48-91.30L466.62-91.30L465.52-76.34Q456.94-86.24 449.79-91.08Q442.64-95.92 434.06-95.92L434.06-95.92Q425.92-95.92 419.32-91.52Q412.72-87.12 408.87-77.88Q405.02-68.64 405.02-54.12L405.02-54.12Q405.02-40.04 408.76-31.02Q412.50-22 419.10-17.60Q425.70-13.20 434.06-13.20L434.06-13.20Q443.52-13.20 450.67-18.37Q457.82-23.54 465.52-33.88L465.52-33.88L466.62-18.92L458.48-18.92Q454.96-12.54 450.56-7.59Q446.16-2.64 440 0.11Q433.84 2.86 425.04 2.86ZM499.62 0L461.78 1.54L459.58-21.34L458.92-21.78L458.92-87.12L460.02-88.66L459.36-140.36L440.88-143.66L440.88-153.12L476.74-161.04L483.12-160.16L482.68-131.56L482.68-13.64L499.62-10.56L499.62 0Z" fill="#1a1f28"/>
    <circle cx="538.12" cy="-16.50" r="16.50" fill="#566073"/>
  </g>
</svg>
