<svg xmlns="http://www.w3.org/2000/svg" width="640" height="220" viewBox="0 0 640 220">

  <g transform="translate(130.93,160.25)">
    <path d="M53.40 0L5.70 0L5.70-8.25L25.65-9.45L32.40-9.45L53.40-8.25L53.40 0ZM37.95 0L19.65 0Q19.80-7.65 19.88-15.30Q19.95-22.95 19.95-30.75Q19.95-38.55 19.95-46.35L19.95-46.35L19.95-53.85Q19.95-61.50 19.95-69.22Q19.95-76.95 19.88-84.67Q19.80-92.40 19.65-100.05L19.65-100.05L37.95-100.05Q37.95-92.40 37.88-84.75Q37.80-77.10 37.80-69.38Q37.80-61.65 37.80-53.85L37.80-53.85L37.80-47.10Q37.80-39 37.80-31.13Q37.80-23.25 37.88-15.52Q37.95-7.80 37.95 0L37.95 0ZM64.95-46.50L28.80-46.50L28.80-55.05L64.95-55.05L64.95-46.50ZM70.05-32.70L61.65-32.70L58.80-48.45L58.80-52.80L61.65-68.25L70.05-68.25L70.05-32.70ZM25.65-90.60L5.70-91.80L5.70-100.05L27.75-100.05L27.75-90.60L25.65-90.60ZM86.55-73.35L76.80-73.35L71.70-96.60L78-91.20L28.80-91.20L28.80-100.05L85.35-100.05L86.55-73.35ZM135 1.95L135 1.95Q123.60 1.95 115.35-2.63Q107.10-7.20 102.67-15.75Q98.25-24.30 98.25-36L98.25-36Q98.25-47.85 102.82-56.85Q107.40-65.85 115.57-70.88Q123.75-75.90 134.25-75.90L134.25-75.90Q143.70-75.90 150.60-72.22Q157.50-68.55 161.32-61.88Q165.15-55.20 165.15-45.90L165.15-45.90Q165.15-43.05 164.85-40.42Q164.55-37.80 164.10-35.85L164.10-35.85L108.00-35.85L108.00-43.20L144.90-43.20Q147.90-44.40 148.88-46.35Q149.85-48.30 149.85-51.15L149.85-51.15Q149.85-56.70 147.97-60.45Q146.10-64.20 142.57-66.08Q139.05-67.95 134.25-67.95L134.25-67.95Q128.85-67.95 124.50-64.88Q120.15-61.80 117.52-55.20Q114.90-48.60 114.90-37.95L114.90-37.95Q114.90-28.65 117.97-22.27Q121.05-15.90 126.52-12.53Q132-9.15 139.35-9.15L139.35-9.15Q146.85-9.15 151.95-11.92Q157.05-14.70 161.10-19.35L161.10-19.35L166.05-15.15Q162.90-10.20 158.77-6.30Q154.65-2.40 148.88-0.22Q143.10 1.95 135 1.95ZM215.40 1.95L215.40 1.95Q204.00 1.95 195.75-2.63Q187.50-7.20 183.07-15.75Q178.65-24.30 178.65-36L178.65-36Q178.65-47.85 183.22-56.85Q187.80-65.85 195.97-70.88Q204.15-75.90 214.65-75.90L214.65-75.90Q224.10-75.90 231.00-72.22Q237.90-68.55 241.72-61.88Q245.55-55.20 245.55-45.90L245.55-45.90Q245.55-43.05 245.25-40.42Q244.95-37.80 244.50-35.85L244.50-35.85L188.40-35.85L188.40-43.20L225.30-43.20Q228.30-44.40 229.27-46.35Q230.25-48.30 230.25-51.15L230.25-51.15Q230.25-56.70 228.37-60.45Q226.50-64.20 222.97-66.08Q219.45-67.95 214.65-67.95L214.65-67.95Q209.25-67.95 204.90-64.88Q200.55-61.80 197.92-55.20Q195.30-48.60 195.30-37.95L195.30-37.95Q195.30-28.65 198.37-22.27Q201.45-15.90 206.92-12.53Q212.40-9.15 219.75-9.15L219.75-9.15Q227.25-9.15 232.35-11.92Q237.45-14.70 241.50-19.35L241.50-19.35L246.45-15.15Q243.30-10.20 239.17-6.30Q235.05-2.40 229.27-0.22Q223.50 1.95 215.40 1.95ZM289.80 1.95L289.80 1.95Q280.95 1.95 273.97-2.63Q267-7.20 263.02-15.82Q259.05-24.45 259.05-36.45L259.05-36.45Q259.05-48.75 263.25-57.60Q267.45-66.45 274.65-71.17Q281.85-75.90 290.70-75.90L290.70-75.90Q296.10-75.90 300-74.25Q303.90-72.60 306.90-69.52Q309.90-66.45 312.60-62.25L312.60-62.25L318.15-62.25L317.40-52.05Q311.55-58.80 306.68-62.10Q301.80-65.40 295.95-65.40L295.95-65.40Q290.40-65.40 285.90-62.40Q281.40-59.40 278.77-53.10Q276.15-46.80 276.15-36.90L276.15-36.90Q276.15-27.30 278.70-21.15Q281.25-15 285.75-12Q290.25-9 295.95-9L295.95-9Q302.40-9 307.27-12.53Q312.15-16.05 317.40-23.10L317.40-23.10L318.15-12.90L312.60-12.90Q310.20-8.55 307.20-5.17Q304.20-1.80 300 0.07Q295.80 1.95 289.80 1.95ZM340.65 0L314.85 1.05L313.35-14.55L312.90-14.85L312.90-59.40L313.65-60.45L313.20-95.70L300.60-97.95L300.60-104.40L325.05-109.80L329.40-109.20L329.10-89.70L329.10-9.30L340.65-7.20L340.65 0Z" fill="#1a1f28"/>
    <circle cx="366.90" cy="-11.25" r="11.25" fill="#566073"/>
  </g>
</svg>
