<?xml version="1.0" encoding="UTF-8" standalone="no"?>
<!DOCTYPE svg PUBLIC "-//W3C//DTD SVG 1.1//EN" "http://www.w3.org/Graphics/SVG/1.1/DTD/svg11.dtd">
<svg width="100%" height="100%" viewBox="0 0 108 108" version="1.1" xmlns="http://www.w3.org/2000/svg" xmlns:xlink="http://www.w3.org/1999/xlink" xml:space="preserve" xmlns:serif="http://www.serif.com/" style="fill-rule:evenodd;clip-rule:evenodd;">
    <g transform="matrix(0.0947368,0,0,0.0947368,5.49474,5.49474)">
        <path d="M723.299,233.092C686.853,235.295 642.198,241.92 619.5,248.49C565.959,263.989 529.852,291.9 510.87,332.464L507.8,339.024L504.827,335.262C500.155,329.35 487.054,317.437 483.387,315.766C482.074,315.168 481,314.332 481,313.907C481,313.482 480.103,312.85 479.006,312.502C477.909,312.154 476.447,311.318 475.756,310.645C474.068,308.999 457.849,300.702 451,297.98C442.735,294.696 429.169,291.31 412.5,288.371C396.595,285.567 355.922,285.615 337.5,288.46C335.85,288.715 330,289.422 324.5,290.031C319,290.641 309.1,292.031 302.5,293.121C295.9,294.211 288.925,295.339 287,295.627C285.075,295.916 278.1,296.982 271.5,297.996C248.984,301.457 213.289,304.985 200.388,305.024C190.126,305.055 185.735,306.115 181.648,312.113C179.124,315.818 173.874,715.832 173.874,715.832L509.488,740.634L846.748,717.132C846.748,717.132 844.38,316.015 842.504,312.785C838.341,305.617 837.173,306 829.812,306L821,306L821,300.455C821,295.83 820.572,294.482 818.426,292.335L815.852,289.761L794.676,290.131L773.5,290.5L773,264.5C772.482,237.556 772.111,235.2 768.043,233.023C765.863,231.856 743.149,231.891 723.299,233.092" style="fill:rgb(251,250,249);stroke:rgb(251,250,249);stroke-width:1px;"/>
    </g>
    <g transform="matrix(0.0947368,0,0,0.0947368,5.49474,5.49474)">
        <path d="M507.5,734.846L498.5,727.329C473.908,706.79 444.056,695.61 400.461,690.612C372.531,687.409 342.74,689.288 291.5,697.482C245.838,704.784 193.937,710.804 187.962,709.492C182.183,708.222 182.54,720.247 182,508.5L181.5,312.5L178.379,318C176.662,321.025 172.858,328.073 169.924,333.663L164.591,343.825L148.579,357.924L152.355,750.623C154.057,753.954 465.994,760.627 465.994,760.627L512.523,774.734L567.2,758.577L876.504,754.775L874.916,355.435L858.738,344.402L842.5,312.71L842,508.942L841.5,705.173L838.543,707.716C835.186,710.604 825.78,710.538 802.5,707.464C796.45,706.665 786.1,705.336 779.5,704.51C772.9,703.685 761.65,702.125 754.5,701.044C691.78,691.561 681.577,690.568 646.5,690.53C589.701,690.469 551.557,702.217 516.75,730.491C509.982,735.989 510.343,737.203 507.5,734.846M401.745,400.579C401.61,400.709 395.65,401.096 388.5,401.44L345,403.528C328.225,404.333 306.4,405 296.5,405.01C274.226,405.032 274,405.082 274,410.045L274,413.856L279.75,414.458C300.456,416.627 299.359,411.41 298.804,505C298.352,581.177 299.925,575.543 277.75,580.432C275.249,580.983 275,581.444 275,585.519C275,588.346 275.444,590 276.204,590C276.866,590 285.529,588.888 295.454,587.529C311.601,585.318 339.122,583 349.233,583L353,583L353,574L346.25,573.944C337.883,573.874 333.307,572.335 330.594,568.679C327.956,565.124 326.654,501.469 329.186,499.864C331.861,498.167 374.856,498.838 378.643,500.635C383.038,502.72 387,511.779 387,519.741C387,519.947 388.913,519.977 391.25,519.807L395.5,519.5L395.766,491.25L396.031,463L387.458,463L386.281,469.192C383.699,482.78 379.762,484.221 342.25,485.313L328,485.727L328,417L340.75,416.76C392.091,415.793 397.79,417.644 401.045,436.34L402.205,443L406.634,443C412.15,443 411.775,444.514 412.274,420.205L412.691,399.91L407.341,400.126C404.398,400.245 401.88,400.449 401.745,400.579" style="fill:rgb(228,220,206);stroke:rgb(228,220,206);stroke-width:1px;"/>
    </g>
    <g transform="matrix(0.0947368,0,0,0.0947368,5.49474,5.49474)">
        <path d="M142.299,346.96C135.479,351.118 135.998,333.998 136.022,554.2C136.043,749.435 136.084,753.587 137.988,757.784C142.025,766.679 127.554,765.953 301.374,765.978L454.248,766L458.122,770.402C481.787,797.286 538.222,797.83 565.041,771.431L570.581,765.977L724.541,765.739L878.5,765.5L881.765,763.171C888.538,758.34 888.021,775.606 888.005,554.865C887.991,364.712 887.901,354.516 886.21,351.62C883.085,346.269 879.394,344.884 869.13,345.211L860.077,345.5L864.038,352.324L868,359.147L868,749L555.399,749L549.939,754.288C532.383,771.293 490.073,770.809 473.705,753.416L469.55,749L156,749L156,357.464L158.51,353.77C159.891,351.738 161.455,348.934 161.986,347.538L162.95,345L154.225,345.004C147.336,345.007 144.826,345.418 142.299,346.96" style="fill:rgb(108,147,112);stroke:rgb(134,174,132);stroke-width:1px;"/>
    </g>
    <g transform="matrix(0.0947368,0,0,0.0947368,5.49474,5.49474)">
        <path d="M722,234.058C690.523,235.974 653.407,241.246 627.333,247.505C573.388,260.454 533.431,289.296 513.314,329.806L508.5,339.5L509,537.72L509.5,735.941L513.912,727.556C522.874,710.523 545.736,683.75 561.5,671.828C601.629,641.478 640.063,629.213 725.5,619.493C778.991,613.408 811.146,608.445 815.479,605.606C821.746,601.5 821.377,612.76 820.682,446.732C820.032,291.419 820.085,293.186 815.978,290.988C814.048,289.955 782.621,290.409 775.25,291.576L772,292.091L772,265.996C772,238.742 771.499,235.173 767.455,233.621C765.361,232.818 738.069,233.08 722,234.058" style="fill:rgb(134,174,132);stroke:rgb(134,174,132);stroke-width:1px;"/>
    </g>
    <g transform="matrix(0.0947368,0,0,0.0947368,5.49474,5.49474)">
        <path d="M777.25,291.802L772,292.105L772,544.077L768.25,547.863C764.077,552.074 769.617,550.742 705,563.069C683.573,567.157 666.545,570.904 658,573.412C631.776,581.109 619.471,585.751 603.5,593.973C556.892,617.969 525.065,660.77 513.132,715.5C509.34,732.89 509.557,734.503 514.478,725.532C529.003,699.055 555.641,672.578 584.449,655.983C619.922,635.548 655.172,626.74 738.5,617.488C759.7,615.133 778.204,612.587 793.678,609.895C797.636,609.206 800.151,608.224 800.678,607.16C801.13,606.247 801.725,534.71 802,448.189L802.5,290.879L792.5,291.189C787,291.36 780.138,291.636 777.25,291.802" style="fill:rgb(110,147,113);stroke:rgb(110,147,113);stroke-width:1px;"/>
    </g>
</svg>
