<!DOCTYPE svg PUBLIC "-//W3C//DTD SVG 1.1//EN" "http://www.w3.org/Graphics/SVG/1.1/DTD/svg11.dtd">
<svg xmlns="http://www.w3.org/2000/svg" viewBox="0 0 1024 1024">
<path fill="#fbfaf9" stroke="#fbfaf9" d="M723.299 233.092c-36.446 2.203-81.101 8.828-103.799 15.398-53.541 15.499-89.648 43.41-108.63 83.974l-3.07 6.56-2.973-3.762c-4.672-5.912-17.773-17.825-21.44-19.496-1.313-.598-2.387-1.434-2.387-1.859 0-.425-.897-1.057-1.994-1.405-1.097-.348-2.559-1.184-3.25-1.857-1.688-1.646-17.907-9.943-24.756-12.665-8.265-3.284-21.831-6.67-38.5-9.609-15.905-2.804-56.578-2.756-75 .089-1.65.255-7.5.962-13 1.571-5.5.61-15.4 2-22 3.09-6.6 1.09-13.575 2.218-15.5 2.506-1.925.289-8.9 1.355-15.5 2.369-22.516 3.461-58.211 6.989-71.112 7.028-16.601.05-17.17.613-34.118 33.726l-2.687 5.25h-8.557c-9.859 0-14.152 1.69-17.776 6.999l-2.25 3.297.041 199.602.041 199.602 2.209 4.424c4.415 8.843-11.012 8.076 162.452 8.076h153.274l6.241 6.351c25.601 26.049 78.82 25.784 106.327-.53L571.67 766h306.034l3.374-2.274c1.856-1.25 4.398-3.792 5.648-5.648l2.274-3.374V355.296l-2.274-3.374c-4.302-6.384-7.857-7.922-18.312-7.922h-9.291l-8.218-16.25C839.271 304.744 840.489 306 829.812 306H821v-5.545c0-4.625-.428-5.973-2.574-8.12l-2.574-2.574-21.176.37-21.176.369-.5-26c-.518-26.944-.889-29.3-4.957-31.477-2.18-1.167-24.894-1.132-44.744.069m100.183 109.991c.01 2.153.37 3.915.799 3.916.867.001.628-6.937-.258-7.485-.307-.189-.55 1.417-.541 3.569m-.154 14.417c.005 3.85.185 5.302.402 3.228.216-2.075.213-5.225-.008-7-.221-1.776-.398-.078-.394 3.772m-.249 9.083c.048 1.165.285 1.402.604.605.289-.722.253-1.585-.079-1.917-.332-.332-.568.258-.525 1.312M823 403c0 18.883.317 34.017.704 33.63.801-.802.628-66.631-.178-67.437-.289-.29-.526 14.924-.526 33.807m-519.25 1.662c.688.278 1.813.278 2.5 0 .688-.277.125-.504-1.25-.504s-1.937.227-1.25.504m92.236 22.368c-1.257.794-1.216.942.264.955.962.008 1.75.54 1.75 1.182 0 .641.266.9.592.575 1.246-1.246-1.086-3.673-2.606-2.712m-.791 4.47c.02 1.65.244 2.204.498 1.231.254-.973.237-2.323-.037-3-.274-.677-.481.119-.461 1.769m427.82 7.309c-.008.72-.465 1.031-1.015.691-.55-.34-1 .11-1 1 0 .932.471 1.327 1.111.931.793-.49.912.767.415 4.378-.4 2.911-.273 5.82.298 6.842.748 1.336 1.08-.038 1.336-5.54.187-4.024.009-7.833-.395-8.464-.523-.817-.739-.771-.75.162M823 462.108c0 3.424.175 6.038.389 5.809.841-.9 1.234-11.032.447-11.518-.46-.285-.836 2.285-.836 5.709m-443.921 9.475c.048 1.165.285 1.402.604.605.289-.722.253-1.585-.079-1.917-.332-.332-.568.258-.525 1.312M823.158 474c0 1.375.227 1.938.504 1.25.278-.687.278-1.812 0-2.5-.277-.687-.504-.125-.504 1.25m-.252 7.5c-.299 11.939-.857 24.352-1.293 28.765-.26 2.621-.138 4.559.271 4.307.409-.253.573 1.203.366 3.234-.545 5.345-.651 33.294-.192 50.444.42 15.683 1.88 20.35 2.033 6.5.5-45.31.356-96.021-.276-97.014-.446-.704-.838.918-.909 3.764M374 479c0 .55.477 1 1.059 1s.781-.45.441-1-.816-1-1.059-1-.441.45-.441 1m4.158.691c.544.654 1.63.944 2.415.643 2.215-.85 1.685-1.834-.988-1.834-1.754 0-2.145.326-1.427 1.191m-46.345 4.992c.721.289 1.584.253 1.916-.079.332-.332-.258-.568-1.312-.525-1.165.048-1.402.285-.604.604m1 16c.721.289 1.584.253 1.916-.079.332-.332-.258-.568-1.312-.525-1.165.048-1.402.285-.604.604m489.92 85.067c-.808 1.576-.714 7.144.13 7.665.486.301.925-1.47.974-3.934.086-4.26-.25-5.395-1.104-3.731M821.5 600c.34.55.816 1 1.059 1s.441-.45.441-1-.477-1-1.059-1-.781.45-.441 1M616 642.393c0 .216.698.661 1.552.989.89.341 1.291.173.941-.393-.587-.951-2.493-1.406-2.493-.596m-3 1c0 .216.698.661 1.552.989.89.341 1.291.173.941-.393-.587-.951-2.493-1.406-2.493-.596M611 645c0 .55.477 1 1.059 1s.781-.45.441-1-.816-1-1.059-1-.441.45-.441 1m-12 5.059c0 .582.45.781 1 .441s1-.816 1-1.059-.45-.441-1-.441-1 .477-1 1.059m-27.015 14.987c-1.367 1.05-2.035 1.905-1.485 1.9 1.323-.013 4.978-2.802 4.412-3.367-.243-.243-1.56.417-2.927 1.467m-5.047 3.286c-5.274 3.953-7.167 5.773-6.597 6.342.355.356 1.489-.325 2.52-1.514 1.03-1.188 2.19-2.16 2.578-2.16.938 0 3.9-2.994 3.428-3.466-.203-.204-1.071.155-1.929.798m-25.125 23.351c.721.289 1.584.253 1.916-.079.332-.332-.258-.568-1.312-.525-1.165.048-1.402.285-.604.604M538.232 695c-.687 1.1-.903 2-.481 2 .422 0 1.33-.9 2.017-2 .687-1.1.903-2 .481-2-.422 0-1.33.9-2.017 2" fill-rule="evenodd"/>
<path fill="#e4dcce" stroke="#e4dcce" d="M728.5 233.121c-69.397 3.575-125.494 16.488-158.62 36.513-25.423 15.369-43.074 33.465-55.597 56.998L508.5 337.5l-.5 198.673-.5 198.673-9-7.517c-24.592-20.539-54.444-31.719-98.039-36.717-27.93-3.203-57.721-1.324-108.961 6.87-45.662 7.302-97.563 13.322-103.538 12.01-5.779-1.27-5.422 10.755-5.962-200.992l-.5-196-3.121 5.5c-1.717 3.025-5.521 10.073-8.455 15.663l-5.333 10.162-9.725.338c-10.482.363-12.953 1.395-17.304 7.222l-2.062 2.762-.257 199.2-.258 199.2 2.258 4.418c4.84 9.474-13.143 8.5 162.254 8.794l154.35.26 3.281 4.143c1.805 2.279 6.227 6.035 9.827 8.347 30.346 19.488 75.12 16.623 97.729-6.252l6.184-6.257h306.836l3.374-2.274c1.856-1.25 4.401-3.797 5.655-5.658l2.282-3.385-.258-200.268-.257-200.268-2.062-2.762c-4.475-5.994-6.731-6.881-17.643-6.934l-10.057-.049-8.119-15.846-8.119-15.846-.5 196.232-.5 196.231-2.957 2.543c-3.357 2.888-12.763 2.822-36.043-.252-6.05-.799-16.4-2.128-23-2.954-6.6-.825-17.85-2.385-25-3.466-62.72-9.483-72.923-10.476-108-10.514-56.799-.061-94.943 11.687-129.75 39.961-6.768 5.498-6.825 5.414-2.172-3.204 16.473-30.508 48.216-60.336 81.422-76.511 32.81-15.982 65.84-23.759 132.681-31.24 40.148-4.494 80.082-10.29 85.569-12.419 1.512-.587 3.648-2.541 4.746-4.342 1.972-3.235 1.997-5.122 2-155.389L821 295.273l-2.75-2.767-2.75-2.767-21.176.695-21.176.695-.324-26.314c-.347-28.153-.578-29.47-5.567-31.744-2.625-1.196-14.873-1.18-38.757.05M401.745 400.579c-.135.13-6.095.517-13.245.861l-43.5 2.088c-16.775.805-38.6 1.472-48.5 1.482-22.274.022-22.5.072-22.5 5.035v3.811l5.75.602c20.706 2.169 19.609-3.048 19.054 90.542-.452 76.177 1.121 70.543-21.054 75.432-2.501.551-2.75 1.012-2.75 5.087 0 2.827.444 4.481 1.204 4.481.662 0 9.325-1.112 19.25-2.471 16.147-2.211 43.668-4.529 53.779-4.529H353v-9l-6.75-.056c-8.367-.07-12.943-1.609-15.656-5.265-2.638-3.555-3.94-67.21-1.408-68.815 2.675-1.697 45.67-1.026 49.457.771 4.395 2.085 8.357 11.144 8.357 19.106 0 .206 1.913.236 4.25.066l4.25-.307.266-28.25.265-28.25h-8.573l-1.177 6.192c-2.582 13.588-6.519 15.029-44.031 16.121l-14.25.414V417l12.75-.24c51.341-.967 57.04.884 60.295 19.58l1.16 6.66h4.429c5.516 0 5.141 1.514 5.64-22.795l.417-20.295-5.35.216c-2.943.119-5.461.323-5.596.453" fill-rule="evenodd"/>
<path fill="#86ae84" stroke="#86ae84" d="M722 234.058c-31.477 1.916-68.593 7.188-94.667 13.447-53.945 12.949-93.902 41.791-114.019 82.301L508.5 339.5l.5 198.22.5 198.221 4.412-8.385c8.962-17.033 31.824-43.806 47.588-55.728 40.129-30.35 78.563-42.615 164-52.335 53.491-6.085 85.646-11.048 89.979-13.887 6.267-4.106 5.898 7.154 5.203-158.874-.65-155.313-.597-153.546-4.704-155.744-1.93-1.033-33.357-.579-40.728.588l-3.25.515v-26.095c0-27.254-.501-30.823-4.545-32.375-2.094-.803-29.386-.541-45.455.437M142.299 346.96c-6.82 4.158-6.301-12.962-6.277 207.24.021 195.235.062 199.387 1.966 203.584 4.037 8.895-10.434 8.169 163.386 8.194l152.874.022 3.874 4.402c23.665 26.884 80.1 27.428 106.919 1.029l5.54-5.454 153.96-.238L878.5 765.5l3.265-2.329c6.773-4.831 6.256 12.435 6.24-208.306-.014-190.153-.104-200.349-1.795-203.245-3.125-5.351-6.816-6.736-17.08-6.409l-9.053.289 3.961 6.824 3.962 6.823V749H555.399l-5.46 5.288c-17.556 17.005-59.866 16.521-76.234-.872L469.55 749H156V357.464l2.51-3.694c1.381-2.032 2.945-4.836 3.476-6.232l.964-2.538-8.725.004c-6.889.003-9.399.414-11.926 1.956m266.58 53.495c-.503.503-26.096 1.906-64.379 3.531-13.75.583-27.475 1.259-30.5 1.501-3.025.243-13.29.457-22.81.477l-17.311.036.311 3.75.31 3.75 7.5.643c13.835 1.185 15.873 3.443 17.028 18.857.995 13.279 1.066 107.84.092 123-1.162 18.097-3.41 21.123-17.924 24.12L275 581.4v3.633c0 1.999.21 3.844.467 4.101.257.257 9.595-.785 20.75-2.317 11.295-1.55 28.109-3.081 37.943-3.455l17.659-.671.357-3.737.356-3.737-7.986-.696c-16.747-1.461-16.757-1.485-17.338-42.756-.427-30.292-.362-31.77 1.422-32.487 1.029-.413 12.22-.757 24.87-.765 29.129-.017 31.48 1.081 33.186 15.488l.593 4.999H395l.2-24c.11-13.2.222-25.687.25-27.75.048-3.607-.09-3.762-3.618-4.055l-3.667-.306-1.192 5.806c-3.055 14.886-7.72 16.62-46.273 17.194l-13.799.206.299-33.965c.165-18.681.669-34.334 1.12-34.784 1.324-1.323 48.376-1.702 55.137-.445 11.256 2.093 16.487 7.865 18.321 20.22l.799 5.379 3.866-.238c2.126-.131 3.961-.356 4.076-.5.115-.144.516-9.599.89-21.012.67-20.406.327-23.153-2.53-20.295" fill-rule="evenodd"/>
<path fill="#6e9371" stroke="#6e9371" d="m777.25 291.802-5.25.303v251.972l-3.75 3.786c-4.173 4.211 1.367 2.879-63.25 15.206-21.427 4.088-38.455 7.835-47 10.343-26.224 7.697-38.529 12.339-54.5 20.561-46.608 23.996-78.435 66.797-90.368 121.527-3.792 17.39-3.575 19.003 1.346 10.032 14.525-26.477 41.163-52.954 69.971-69.549 35.473-20.435 70.723-29.243 154.051-38.495 21.2-2.355 39.704-4.901 55.178-7.593 3.958-.689 6.473-1.671 7-2.735.452-.913 1.047-72.45 1.322-158.971l.5-157.31-10 .31c-5.5.171-12.362.447-15.25.613m-634.009 55.193c-1.793 1.093-4.156 3.453-5.252 5.246-2.967 4.853-2.666 400.104.31 405.553 4.294 7.866-10.693 7.198 161.507 7.202l153.305.004 6.305 6.305c25.722 25.722 79.769 25.736 104.902.026l6.17-6.312 154.676-.26 154.675-.259 2.709-2.5c5.817-5.367 5.467 8.025 5.416-207.309-.053-221.176.566-202.459-6.862-207.421-3.085-2.061-20.102-3.612-20.102-1.832 0 .24 1.794 3.728 3.986 7.75l3.986 7.312.014 194.25L869 749l-136.75.245c-75.212.135-145.676.115-156.585-.044l-19.836-.288-3.984 4.525c-16.144 18.342-62.542 18.345-78.685.007l-3.945-4.482-156.857.099-156.858.099-.253-195.749c-.212-164.775-.035-195.999 1.121-197.33.755-.87 2.547-3.719 3.983-6.332l2.609-4.75-8.23.004c-6.448.003-8.936.434-11.489 1.991" fill-rule="evenodd"/>
</svg>